<?xml version="1.0" encoding="UTF-8" standalone="no"?>
<!-- Created with Inkscape (http://www.inkscape.org/) -->

<svg
   xmlns:dc="http://purl.org/dc/elements/1.1/"
   xmlns:cc="http://creativecommons.org/ns#"
   xmlns:rdf="http://www.w3.org/1999/02/22-rdf-syntax-ns#"
   xmlns:svg="http://www.w3.org/2000/svg"
   xmlns="http://www.w3.org/2000/svg"
   version="1.1"
   width="75mm"
   height="60mm"
   id="svg2">
  <defs
     id="defs3" />
  <metadata
     id="metadata4">
    <rdf:RDF>
      <cc:Work
         rdf:about="">
        <dc:format>image/svg+xml</dc:format>
        <dc:type
           rdf:resource="http://purl.org/dc/dcmitype/StillImage" />
        <dc:title></dc:title>
        <dc:date>14 Aug 2006</dc:date>
        <dc:creator>
          <cc:Agent>
            <dc:title>Stanisław Skowron</dc:title>
          </cc:Agent>
        </dc:creator>
        <dc:rights>
          <cc:Agent>
            <dc:title />
          </cc:Agent>
        </dc:rights>
        <dc:source>own work</dc:source>
        <cc:license
           rdf:resource="http://web.resource.org/cc/PublicDomain" />
      </cc:Work>
      <cc:License
         rdf:about="http://web.resource.org/cc/PublicDomain">
        <cc:permits
           rdf:resource="http://web.resource.org/cc/Reproduction" />
        <cc:permits
           rdf:resource="http://web.resource.org/cc/Distribution" />
        <cc:permits
           rdf:resource="http://web.resource.org/cc/DerivativeWorks" />
      </cc:License>
    </rdf:RDF>
  </metadata>
  <g
     id="layer1">
    <g
       id="g3065">
      <path
         d="m 51.36269,163.07142 0,10.625 10.21875,20.4375 c 1.815498,0.29698 3.787,0.57116 5.84375,0.84375 16.21231,2.14867 39.39881,3.53125 65.4375,3.53125 26.0342,0 49.2255,-1.38323 65.4375,-3.53125 2.05126,-0.27178 4.03268,-0.54753 5.84375,-0.84375 l 0.0313,0 3.8125,-7.6875 6.375,-12.75 0,-10.625 -3.53125,0 -10.625,17.71875 -17.71875,0 -3.5625,7.09375 -92.125,0 -3.53125,-7.09375 -17.71875,0 -10.625,-17.71875 -3.5625,0 z"
         id="rect1304"
         style="fill:#d7d7d7;fill-opacity:1;fill-rule:nonzero;stroke:#000000;stroke-width:0.35433072;stroke-linecap:butt;stroke-linejoin:miter;stroke-miterlimit:4;stroke-opacity:1;stroke-dashoffset:0" />
      <path
         d="m 64.36269,35.50892 c -3.2686,0 -5.90625,1.4076 -5.90625,3.125 l 0,7.53125 c -3.543305,7.086614 -7.081693,19.485482 -10.625,28.34375 -7.086612,17.716534 -10.622785,53.12943 7.09375,88.5625 0.442913,0.88583 7.78937,14.1875 12.75,14.1875 5.010993,0 7.25807,-3.48942 4.96875,-7.09375 -18.314576,-28.83465 -21.28125,-42.50935 -21.28125,-67.3125 -3e-6,-24.803149 10.633857,-53.15625 81.5,-53.15625 70.86614,0 81.5,31.896407 81.5,53.15625 -10e-6,21.25984 -3.53347,38.96605 -21.25,67.3125 -2.21457,3.54331 -0.0422,7.09375 4.96875,7.09375 5.66928,0 11.64272,-11.97293 12.75,-14.1875 17.71654,-35.43307 14.18037,-70.845964 7.09375,-88.5625 -3.54331,-8.85827 -7.11295,-21.257136 -10.65625,-28.34375 l 0,-7.53125 c 0,-1.7174 -2.60639,-3.125 -5.875,-3.125 l -5.9375,0 c -3.2686,0 -5.875,1.4076 -5.875,3.125 l 0,0.8125 c -1.21807,-0.086 -2.37973,-0.241029 -3.5625,-0.28125 l 0,-0.53125 c 0,-1.7174 -2.63764,-3.125 -5.90625,-3.125 l -5.90625,0 c -3.2686,0 -5.90625,1.4076 -5.90625,3.125 l 0,0.4375 c -0.98396,0 -2.46356,0 -3.53125,0 l 0,-0.4375 c 0,-1.7174 -2.63764,-3.125 -5.90625,-3.125 l -5.90625,0 c -3.2686,0 -5.90625,1.4076 -5.90625,3.125 l 0,0.4375 c -1.35523,0 -2.14513,0 -3.53125,0 l 0,-0.4375 c 0,-1.7174 -2.63766,-3.125 -5.90625,-3.125 l -9.46875,0 c -3.2686,0 -5.90625,1.4076 -5.90625,3.125 l 0,0.4375 c -1.38635,0 -2.17571,0 -3.53125,0 l 0,-0.4375 c 0,-1.7174 -2.63764,-3.125 -5.90625,-3.125 l -5.90625,0 c -3.2686,0 -5.90625,1.4076 -5.90625,3.125 l 0,0.4375 c -1.06839,0 -2.54651,0 -3.53125,0 l 0,-0.4375 c 0,-1.7174 -2.63765,-3.125 -5.90625,-3.125 l -5.9375,0 c -3.2686,0 -5.875,1.4076 -5.875,3.125 l 0,0.53125 c -1.1836,0.04022 -2.34353,0.195184 -3.5625,0.28125 l 0,-0.8125 c 0,-1.7174 -2.63765,-3.125 -5.90625,-3.125 l -5.90625,0 z"
         id="path1339"
         style="fill:#c4c4ff;fill-opacity:1;fill-rule:evenodd;stroke:#000000;stroke-width:0.35433072;stroke-linecap:butt;stroke-linejoin:miter;stroke-miterlimit:4;stroke-opacity:1" />
      <path
         d="M 69.094481,170.16662 C 54.921253,152.45009 47.834639,131.19025 47.834639,106.3871 c 0,-24.803153 3.543309,-60.236224 85.039371,-60.236224 81.49606,0 85.03937,35.433072 85.03937,60.236224 0,24.80315 -7.08662,42.51968 -21.25984,63.77952"
         id="path2147"
         style="fill:none;stroke:#00880d;stroke-width:1px;stroke-linecap:round;stroke-linejoin:miter;stroke-opacity:1" />
      <path
         d="m 96.377953,139.60628 a 2.1259842,2.1259842 0 1 1 -4.251969,0 2.1259842,2.1259842 0 1 1 4.251969,0 z"
         transform="translate(-26.57481,31.97767)"
         id="path2143"
         style="fill:#b23a00;fill-opacity:1;fill-rule:nonzero;stroke:none" />
      <path
         d="m 96.377953,139.60628 a 2.1259842,2.1259842 0 1 1 -4.251969,0 2.1259842,2.1259842 0 1 1 4.251969,0 z"
         transform="translate(103.81889,31.97767)"
         id="path2145"
         style="fill:#b23a00;fill-opacity:1;fill-rule:nonzero;stroke:none" />
      <path
         d="m 95.66929,23.031473 a 1.7716535,1.7716535 0 1 1 -3.543307,0 1.7716535,1.7716535 0 1 1 3.543307,0 z"
         transform="translate(-30.118116,31.977671)"
         id="path5181"
         style="fill:#000000;fill-opacity:1;fill-rule:nonzero;stroke:none" />
      <path
         d="m 95.66929,23.031473 a 1.7716535,1.7716535 0 1 1 -3.543307,0 1.7716535,1.7716535 0 1 1 3.543307,0 z"
         transform="translate(-12.40158,24.891057)"
         id="path5941"
         style="fill:#000000;fill-opacity:1;fill-rule:nonzero;stroke:none" />
      <path
         d="m 95.66929,23.031473 a 1.7716535,1.7716535 0 1 1 -3.543307,0 1.7716535,1.7716535 0 1 1 3.543307,0 z"
         transform="translate(8.85826,21.34775)"
         id="path5943"
         style="fill:#000000;fill-opacity:1;fill-rule:nonzero;stroke:none" />
      <path
         d="m 95.66929,23.031473 a 1.7716535,1.7716535 0 1 1 -3.543307,0 1.7716535,1.7716535 0 1 1 3.543307,0 z"
         transform="translate(69.09448,21.34775)"
         id="path5945"
         style="fill:#000000;fill-opacity:1;fill-rule:nonzero;stroke:none" />
      <path
         d="m 95.66929,23.031473 a 1.7716535,1.7716535 0 1 1 -3.543307,0 1.7716535,1.7716535 0 1 1 3.543307,0 z"
         transform="translate(90.35429,24.891057)"
         id="path5947"
         style="fill:#000000;fill-opacity:1;fill-rule:nonzero;stroke:none" />
      <path
         d="m 95.66929,23.031473 a 1.7716535,1.7716535 0 1 1 -3.543307,0 1.7716535,1.7716535 0 1 1 3.543307,0 z"
         transform="translate(108.07089,31.977671)"
         id="path5949"
         style="fill:#000000;fill-opacity:1;fill-rule:nonzero;stroke:none" />
      <path
         d="m 95.66929,23.031473 a 1.7716535,1.7716535 0 1 1 -3.543307,0 1.7716535,1.7716535 0 1 1 3.543307,0 z"
         transform="translate(38.97637,19.5761)"
         id="path5951"
         style="fill:#000000;fill-opacity:1;fill-rule:nonzero;stroke:none" />
      <path
         d="m 58.592903,188.06929 -10.758264,17.53041 -38.976378,0"
         id="path5967"
         style="fill:none;stroke:#000000;stroke-width:0.35433072;stroke-linecap:butt;stroke-linejoin:miter;stroke-miterlimit:4;stroke-opacity:1" />
      <path
         d="m 67.394941,171.80026 -19.560302,8.99629 -38.976378,0"
         id="path5969"
         style="fill:none;stroke:#000000;stroke-width:0.35433072;stroke-linecap:butt;stroke-linejoin:miter;stroke-miterlimit:4;stroke-opacity:1" />
      <path
         d="m 49.73396,127.81442 -19.615857,10.46244 -21.259842,0"
         id="path5971"
         style="fill:none;stroke:#000000;stroke-width:0.35433072;stroke-linecap:butt;stroke-linejoin:miter;stroke-miterlimit:4;stroke-opacity:1" />
      <path
         d="m 63.729455,54.837913 -33.611352,-8.687037 -21.259842,0"
         id="path5973"
         style="fill:none;stroke:#000000;stroke-width:0.35433072;stroke-linecap:butt;stroke-linejoin:miter;stroke-miterlimit:4;stroke-opacity:1" />
      <path
         d="m 194.88188,35.520955 19.48819,-17.716535 42.51969,0"
         id="path5975"
         style="fill:none;stroke:#000000;stroke-width:0.35433072;stroke-linecap:butt;stroke-linejoin:miter;stroke-miterlimit:4;stroke-opacity:1" />
      <path
         d="m 224.01119,110.15344 18.70534,-7.30965 14.17323,0"
         id="path5977"
         style="fill:none;stroke:#000000;stroke-width:0.35433072;stroke-linecap:butt;stroke-linejoin:miter;stroke-miterlimit:4;stroke-opacity:1" />
      <path
         d="m 202.18489,175.46575 19.2718,12.41741 35.43307,0"
         id="path5979"
         style="fill:none;stroke:#000000;stroke-width:0.35433072;stroke-linecap:butt;stroke-linejoin:miter;stroke-miterlimit:4;stroke-opacity:1" />
      <path
         d="m 13.580917,44.274862 -4.722656,0 0,-0.890625 1.816406,0 0,-5.847657 -1.816406,0 0,-0.796875 c 0.246092,8e-6 0.509764,-0.01952 0.791016,-0.05859 0.281247,-0.04296 0.494137,-0.103507 0.638672,-0.18164 0.179684,-0.09765 0.320309,-0.220695 0.421875,-0.369141 0.105465,-0.152335 0.166012,-0.35546 0.18164,-0.609375 l 0.908203,0 0,7.863282 1.78125,0 0,0.890625"
         id="text12130"
         style="font-size:12px;font-style:normal;font-variant:normal;font-weight:normal;font-stretch:normal;writing-mode:lr-tb;text-anchor:start;fill:#000000;fill-opacity:1;stroke:none;font-family:Sans" />
      <path
         d="m 14.764511,136.55319 -5.90625,0 0,-1.22461 c 0.410155,-0.35156 0.820311,-0.70312 1.230469,-1.05468 0.41406,-0.35156 0.798825,-0.70117 1.154297,-1.04883 0.749996,-0.72656 1.263667,-1.30273 1.541015,-1.72852 0.277339,-0.42968 0.416011,-0.89257 0.416016,-1.38867 -5e-6,-0.45312 -0.150396,-0.80663 -0.451172,-1.06055 -0.296879,-0.2578 -0.712895,-0.38671 -1.248047,-0.38672 -0.355472,1e-5 -0.740237,0.0625 -1.154297,0.1875 -0.414064,0.12501 -0.818361,0.31642 -1.21289,0.57422 l -0.05859,0 0,-1.23047 c 0.277342,-0.1367 0.646483,-0.2617 1.107422,-0.37499 0.464841,-0.11328 0.914059,-0.16992 1.347656,-0.16993 0.894527,1e-5 1.595698,0.21681 2.103516,0.65039 0.507806,0.4297 0.761712,1.01368 0.761719,1.75196 -7e-6,0.33203 -0.04298,0.64258 -0.128907,0.93164 -0.08204,0.28516 -0.205084,0.55664 -0.36914,0.81445 -0.15235,0.24219 -0.332037,0.48047 -0.539063,0.71484 -0.20313,0.23438 -0.451177,0.49415 -0.74414,0.7793 -0.417974,0.41016 -0.849614,0.8086 -1.294922,1.19531 -0.445316,0.38282 -0.861331,0.73829 -1.248047,1.06641 l 4.693359,0 0,1.00195"
         id="text12134"
         style="font-size:12px;font-style:normal;font-variant:normal;font-weight:normal;font-stretch:normal;writing-mode:lr-tb;text-anchor:start;fill:#000000;fill-opacity:1;stroke:none;font-family:Sans" />
      <path
         d="m 13.961777,174.8717 c 0.187493,0.16797 0.34179,0.37891 0.46289,0.63281 0.121087,0.25391 0.181634,0.58203 0.181641,0.98438 -7e-6,0.39843 -0.07227,0.76367 -0.216797,1.0957 -0.144537,0.33203 -0.347662,0.62109 -0.609375,0.86719 -0.292974,0.27343 -0.638677,0.47656 -1.037109,0.60937 -0.394536,0.12891 -0.828129,0.19336 -1.300781,0.19336 -0.484379,0 -0.960941,-0.0586 -1.429688,-0.17578 -0.468752,-0.11328 -0.853517,-0.23828 -1.154297,-0.375 l 0,-1.22461 0.08789,0 c 0.33203,0.21875 0.722654,0.40039 1.171875,0.54492 0.449216,0.14453 0.882809,0.2168 1.300781,0.2168 0.24609,0 0.507808,-0.041 0.785156,-0.12305 0.277339,-0.082 0.501949,-0.20312 0.673828,-0.36328 0.179683,-0.17187 0.312495,-0.36133 0.398438,-0.56836 0.08984,-0.20703 0.13476,-0.46875 0.134766,-0.78516 -6e-6,-0.31249 -0.05079,-0.5703 -0.152344,-0.77343 -0.09766,-0.20703 -0.23438,-0.36914 -0.410156,-0.48633 -0.175787,-0.12109 -0.388677,-0.20312 -0.638672,-0.24609 -0.250004,-0.0469 -0.519535,-0.0703 -0.808594,-0.0703 l -0.527344,0 0,-0.97265 0.410156,0 c 0.593746,0 1.066402,-0.12305 1.417969,-0.36914 0.355464,-0.25 0.533198,-0.61328 0.533203,-1.08985 -5e-6,-0.21093 -0.04493,-0.39452 -0.134765,-0.55078 -0.08985,-0.16015 -0.214849,-0.29101 -0.375,-0.39258 -0.167974,-0.10155 -0.347661,-0.17186 -0.539063,-0.21093 -0.19141,-0.0391 -0.408207,-0.0586 -0.65039,-0.0586 -0.371098,1e-5 -0.765628,0.0664 -1.183594,0.19922 -0.417971,0.13282 -0.812502,0.32032 -1.183594,0.5625 l -0.05859,0 0,-1.22461 c 0.277343,-0.13671 0.646483,-0.26171 1.107422,-0.375 0.464841,-0.11718 0.914059,-0.17577 1.347656,-0.17578 0.425778,1e-5 0.800777,0.0391 1.125,0.11719 0.324214,0.0781 0.617182,0.20313 0.878907,0.375 0.281244,0.18751 0.494134,0.41407 0.638672,0.67968 0.144524,0.26564 0.21679,0.57618 0.216796,0.93165 -6e-6,0.48438 -0.171881,0.9082 -0.515625,1.27148 -0.339849,0.35938 -0.742192,0.58594 -1.207031,0.67969 l 0,0.082 c 0.187495,0.0313 0.402339,0.0977 0.644531,0.19922 0.242182,0.0977 0.44726,0.2207 0.615235,0.36914"
         id="text12138"
         style="font-size:12px;font-style:normal;font-variant:normal;font-weight:normal;font-stretch:normal;writing-mode:lr-tb;text-anchor:start;fill:#000000;fill-opacity:1;stroke:none;font-family:Sans" />
      <path
         d="m 15.455917,201.23931 -1.294921,0 0,2.45508 -1.125,0 0,-2.45508 -4.177735,0 0,-1.34765 4.22461,-4.92188 1.078125,0 0,5.33203 1.294921,0 0,0.9375 m -2.419921,-0.9375 0,-3.9375 -3.38086,3.9375 3.38086,0"
         id="text12142"
         style="font-size:12px;font-style:normal;font-variant:normal;font-weight:normal;font-stretch:normal;writing-mode:lr-tb;text-anchor:start;fill:#000000;fill-opacity:1;stroke:none;font-family:Sans" />
      <path
         d="m 256.88976,13.127624 c -1e-5,0.406252 -0.0742,0.794924 -0.22266,1.166015 -0.14844,0.371095 -0.35157,0.683595 -0.60937,0.9375 -0.28126,0.273438 -0.61719,0.484376 -1.00781,0.632813 -0.38673,0.144531 -0.83595,0.216797 -1.34766,0.216797 -0.47657,0 -0.93555,-0.05078 -1.37695,-0.152344 -0.44141,-0.09766 -0.81446,-0.216797 -1.11914,-0.357422 l 0,-1.236328 0.082,0 c 0.32031,0.203126 0.69531,0.376954 1.125,0.521484 0.42968,0.140626 0.85156,0.210939 1.26562,0.210938 0.27734,1e-6 0.54492,-0.03906 0.80274,-0.117188 0.26171,-0.07812 0.49413,-0.214842 0.69726,-0.410156 0.17187,-0.167967 0.30078,-0.369139 0.38672,-0.603515 0.0898,-0.234373 0.13476,-0.505857 0.13477,-0.814454 -1e-5,-0.300778 -0.0527,-0.554684 -0.15821,-0.761718 -0.10156,-0.207028 -0.24414,-0.373043 -0.42773,-0.498047 -0.20313,-0.148433 -0.45118,-0.251949 -0.74414,-0.310547 -0.28907,-0.0625 -0.61329,-0.09375 -0.97266,-0.09375 -0.34375,4e-6 -0.67578,0.02344 -0.99609,0.07031 -0.31641,0.04688 -0.58985,0.09376 -0.82031,0.140625 l 0,-4.49414 5.25,0 0,1.02539 -4.11915,0 0,2.320313 c 0.16797,-0.01562 0.33985,-0.02734 0.51563,-0.03516 0.17578,-0.0078 0.32812,-0.01171 0.45703,-0.01172 0.47265,5e-6 0.88672,0.04102 1.24219,0.123047 0.35546,0.07813 0.68163,0.218755 0.97851,0.421875 0.3125,0.214848 0.55469,0.492192 0.72657,0.832031 0.17186,0.339848 0.2578,0.765628 0.25781,1.277344"
         id="text12146"
         style="font-size:12px;font-style:normal;font-variant:normal;font-weight:normal;font-stretch:normal;writing-mode:lr-tb;text-anchor:start;fill:#000000;fill-opacity:1;stroke:none;font-family:Sans" />
      <path
         d="m 256.88976,98.272462 c -1e-5,0.886721 -0.29298,1.61133 -0.87891,2.173828 -0.58203,0.55859 -1.29688,0.83789 -2.14453,0.83789 -0.42969,0 -0.82031,-0.0664 -1.17187,-0.19922 -0.35157,-0.13281 -0.66211,-0.33008 -0.93164,-0.59179 -0.33594,-0.32422 -0.59571,-0.75391 -0.7793,-1.289067 -0.17969,-0.535154 -0.26953,-1.179685 -0.26953,-1.933594 0,-0.773433 0.082,-1.458979 0.24609,-2.056641 0.16797,-0.597649 0.43359,-1.128899 0.79688,-1.59375 0.34374,-0.441398 0.7871,-0.785148 1.33007,-1.03125 0.54297,-0.249991 1.17578,-0.374991 1.89844,-0.375 0.23047,9e-6 0.42382,0.0098 0.58008,0.0293 0.15624,0.01954 0.31445,0.0547 0.47461,0.105469 l 0,1.119141 -0.0586,0 c -0.10938,-0.05859 -0.2754,-0.113274 -0.49805,-0.164063 -0.21876,-0.05468 -0.44337,-0.08202 -0.67383,-0.08203 -0.83985,8e-6 -1.50977,0.263679 -2.00976,0.791016 -0.50001,0.523444 -0.79102,1.232427 -0.87305,2.126953 0.32812,-0.199214 0.65039,-0.349604 0.9668,-0.451172 0.3203,-0.105463 0.68944,-0.158198 1.10742,-0.158203 0.37109,5e-6 0.69726,0.03516 0.97851,0.105468 0.28515,0.06641 0.57617,0.203131 0.87305,0.410157 0.34374,0.238286 0.60156,0.539067 0.77344,0.902343 0.17577,0.363285 0.26366,0.804691 0.26367,1.324219 m -1.18945,0.04687 c -1e-5,-0.363278 -0.0547,-0.664059 -0.16407,-0.902344 -0.10547,-0.238277 -0.28125,-0.445308 -0.52734,-0.621093 -0.17969,-0.124996 -0.37891,-0.207027 -0.59766,-0.246094 -0.21875,-0.03906 -0.44727,-0.05859 -0.68554,-0.05859 -0.33204,5e-6 -0.64063,0.03907 -0.92578,0.117188 -0.28516,0.07813 -0.57813,0.199223 -0.87891,0.363281 -0.008,0.08594 -0.0137,0.169926 -0.0176,0.251953 -0.004,0.07813 -0.006,0.177738 -0.006,0.298828 0,0.617191 0.0625,1.105471 0.1875,1.464844 0.12891,0.35547 0.30469,0.63672 0.52735,0.84375 0.17968,0.171871 0.37304,0.298831 0.58007,0.380861 0.21094,0.0781 0.43945,0.11719 0.68555,0.11719 0.5664,0 1.01171,-0.17188 1.33594,-0.515629 0.32421,-0.347655 0.48632,-0.845701 0.48633,-1.494141"
         id="text12150"
         style="font-size:12px;font-style:normal;font-variant:normal;font-weight:normal;font-stretch:normal;writing-mode:lr-tb;text-anchor:start;fill:#000000;fill-opacity:1;stroke:none;font-family:Sans" />
      <path
         d="m 256.88976,178.55988 -3.94922,7.41797 -1.25391,0 4.20118,-7.69922 -4.96875,0 0,-1.02539 5.9707,0 0,1.30664"
         id="text12154"
         style="font-size:12px;font-style:normal;font-variant:normal;font-weight:normal;font-stretch:normal;writing-mode:lr-tb;text-anchor:start;fill:#000000;fill-opacity:1;stroke:none;font-family:Sans" />
    </g>
  </g>
</svg>
