<?xml version="1.0" encoding="UTF-8" standalone="no"?>
<!-- Created with Inkscape (http://www.inkscape.org/) -->

<svg
   xmlns:svg="http://www.w3.org/2000/svg"
   xmlns="http://www.w3.org/2000/svg"
   version="1.1"
   width="574.93799"
   height="574.93799"
   id="svg2816">
  <defs
     id="defs2820" />
  <path
     d="m 41.496,574.438 h 491.947 c 10.872,0 21.3,-4.318 28.988,-12.007 7.688,-7.688 12.007,-18.115 12.007,-28.988 V 41.496 c 0,-10.873 -4.319,-21.3 -12.007,-28.988 C 554.742,4.819 544.314,0.5 533.442,0.5 H 41.496 C 30.623,0.5 20.196,4.819 12.508,12.507 4.819,20.195 0.5,30.623 0.5,41.496 v 491.947 c 0,10.873 4.319,21.3 12.007,28.988 7.688,7.688 18.116,12.007 28.989,12.007 z"
     id="path6"
     style="fill:#ffffff;stroke:#000000;stroke-linecap:round;stroke-linejoin:round" />
  <path
     d="m 544.919,529.72 c 0,6.744 -5.468,12.214 -12.214,12.214 H 42.659 c -6.746,0 -12.214,-5.47 -12.214,-12.214 V 41.173 c 0,-6.746 5.468,-12.214 12.214,-12.214 h 490.046 c 6.746,0 12.214,5.469 12.214,12.214 V 529.72 z"
     id="path8"
     style="fill:#0000ff;stroke:#000000" />
  <path
     d="m 235.025,447.142 v 2.841 H 166.041 V 123.755 h 132.196 c 65.001,0 117.695,52.693 117.695,117.695 0,65.002 -52.694,117.695 -117.695,117.695 h -63.212 v 87.997 z"
     id="path10"
     style="fill:none;stroke:#0000ff;stroke-width:0.17640001;stroke-linecap:round;stroke-linejoin:round" />
  <path
     d="m 238.703,288.582 v -86.777 h 38.406 c 24.271,0 43.945,19.675 43.945,43.946 0,24.271 -19.675,43.945 -43.945,43.945 -12.81,0 -25.617,-0.371 -38.406,-1.114 z"
     id="path12"
     style="fill:none;stroke:#0000ff;stroke-width:0.17640001;stroke-linecap:round;stroke-linejoin:round" />
  <polygon
     points="394.307,252.183 353.8,171.156 314.792,252.183 338.797,252.183 338.797,414.236 371.803,414.236 371.803,252.183 "
     transform="matrix(-1.5021289,5.482685e-4,-4.9603382e-4,-1.6603101,687.30714,782.44902)"
     id="polygon12"
     style="fill:#ff0000;stroke:#ff0000;stroke-width:8.14613438;stroke-linecap:round;stroke-linejoin:round;stroke-miterlimit:4;stroke-opacity:1;stroke-dasharray:none" />
  <polygon
     points="217.275,412.047 154.263,298.171 190.27,298.171 188.77,173.346 239.779,173.346 239.779,295.981 272.785,295.981 "
     transform="matrix(-1.6297137,-0.00815806,0.00797834,-1.6664222,728.25204,779.13913)"
     id="polygon14"
     style="fill:#ffffff;fill-opacity:1;stroke:#ffffff;stroke-width:14.26292038;stroke-linecap:round;stroke-linejoin:round;stroke-miterlimit:4;stroke-opacity:1;stroke-dasharray:none" />
</svg>
