<?xml version="1.0" encoding="utf-8"?>
<!-- Generator: Adobe Illustrator 13.0.0, SVG Export Plug-In  -->
<!DOCTYPE svg PUBLIC "-//W3C//DTD SVG 1.1//EN" "http://www.w3.org/Graphics/SVG/1.1/DTD/svg11.dtd" [
	<!ENTITY ns_flows "http://ns.adobe.com/Flows/1.0/">
]>
<svg version="1.1"
	 xmlns="http://www.w3.org/2000/svg" xmlns:xlink="http://www.w3.org/1999/xlink" xmlns:a="http://ns.adobe.com/AdobeSVGViewerExtensions/3.0/"
	 x="0px" y="0px" width="576px" height="576px" viewBox="-0.944 -0.944 576 576" enable-background="new -0.944 -0.944 576 576"
	 xml:space="preserve">
<defs>
</defs>
<circle stroke="#000000" stroke-width="0.1764" stroke-linecap="round" stroke-linejoin="round" cx="287.056" cy="287.056" r="286.968"/>
<path fill="#FFFFFF" stroke="#000000" stroke-width="0.1764" stroke-linecap="round" stroke-linejoin="round" d="M131.268,511.807
	c108.646,75.308,255.606,62.118,349.105-31.333c93.5-93.45,106.766-240.404,31.513-349.089l-71.274,71.385l-15.35,15.361H286.027
	l58.23-58.232l98.938-97.348C334.725-12.889,187.828,0.014,94.169,93.208C0.51,186.403-13.123,333.233,61.777,442.078l64.906-64.597
	h139.35l-37.244,37.272L131.268,511.807z"/>
<path stroke="#000000" stroke-width="0.1764" stroke-linecap="round" stroke-linejoin="round" d="M335.065,249.357
	c20.711,0,41.422,0,62.133,0c3.09,0,6.179,0,9.268,0c2.491,0,7.326,6.142,9.126,7.748c3.241,2.894,4.906,3.934,6.059,7.974
	c1.567,5.497,3.136,10.994,4.704,16.49c0.836,2.93,6.8,6.868,8.992,9.045c2.055,2.04,0.863,9.365,0.942,12.085
	c0.142,4.873,0.284,9.746,0.426,14.619c0.059,2.016-8.809,7.949-10.515,9.462c-1.535,1.362-0.181,10.96-0.181,12.992
	c0,5.193,2.21,9.494-3.468,9.494c-3.623,0-9.909,2.068-9.909-2.264c0-6.061,0-12.122,0-18.183c0-2.891-14.91-1.322-17.55-1.322
	c-13.349,0-26.698,0-40.047,0c-8.257,0-16.514,0-24.771,0c-2.079,0,3.121,21.769-2.089,21.769c-1.68,0-12.229,0.718-12.229-0.609
	c0-5.919,0-11.839,0-17.758c0-4.676-2.385-5.868-5.722-9.32c-3.879-4.013-3.45-4.854-3.45-10.516c0-5.953,0-11.906,0-17.86
	c0-4.098,5.505-6.932,8.384-9.519c5.777-5.192,2.081-17.49,7.462-22.575C326.775,257.191,330.921,253.274,335.065,249.357"/>
<path stroke="#000000" stroke-width="0.1764" stroke-linecap="round" stroke-linejoin="round" d="M176.167,249.357
	c12.341,0,24.682,0,37.022,0c8.002,0,16.004,0,24.007,0c2.029,0,9.435-1.233,11.048,0.207c4.022,3.591,10.679,7.533,13.526,12.072
	c3.233,5.155,3.969,13.911,5.649,19.801c1.018,3.567,9.54,6.428,9.644,10.016c0.22,7.563,0.44,15.125,0.661,22.688
	c0.166,5.668-5.39,8.177-9.49,11.813c-3.391,3.008-1.113,15.037-1.113,19.397c0,6.843-6.95,3.916-12.917,3.916
	c-0.955,0-0.459-17.379-0.459-19.505c0-3.609-2.358-2.264-5.711-2.264c-7.5,0-14.999,0-22.499,0c-16.208,0-32.417,0-48.625,0
	c-6.104,0-5.711-0.79-5.711,5.644c0,4.62,0,9.241,0,13.861c0,3.458-1.608,2.264-4.977,2.264c-0.936,0-9.162,0.321-9.162-0.277
	c0-3.897,0-7.796,0-11.693c0-10.032-0.906-10.735-8.015-18.089c-3.596-3.72-1.158-16.086-1.158-21.042
	c0-8.667,2.96-9.607,9.595-15.57c3.478-3.126,4.237-15.347,5.431-19.955C164.138,257.915,172.618,252.711,176.167,249.357"/>
<circle fill="#FFFFFF" stroke="#FFFFFF" stroke-width="0.1764" stroke-linecap="round" stroke-linejoin="round" cx="416.219" cy="305.779" r="6.399"/>
<polygon fill="#FFFFFF" stroke="#FFFFFF" stroke-width="0.1764" stroke-linecap="round" stroke-linejoin="round" points="
	333.154,258.287 409.969,257.729 414.936,282.846 327.04,282.846 "/>
<circle fill="#FFFFFF" stroke="#FFFFFF" stroke-width="0.1764" stroke-linecap="round" stroke-linejoin="round" cx="326.994" cy="305.779" r="6.479"/>
<circle fill="#FFFFFF" stroke="#FFFFFF" stroke-width="0.1764" stroke-linecap="round" stroke-linejoin="round" cx="168.097" cy="305.779" r="6.479"/>
<polygon fill="#FFFFFF" stroke="#FFFFFF" stroke-width="0.1764" stroke-linecap="round" stroke-linejoin="round" points="
	174.257,258.287 251.071,257.729 256.039,282.846 168.143,282.846 "/>
<circle fill="#FFFFFF" stroke="#FFFFFF" stroke-width="0.1764" stroke-linecap="round" stroke-linejoin="round" cx="257.323" cy="305.779" r="6.399"/>
</svg>
