<?xml version="1.0" encoding="UTF-8" standalone="no"?>
<!-- Generator: Adobe Illustrator 13.0.0, SVG Export Plug-In  -->

<svg
   xmlns:dc="http://purl.org/dc/elements/1.1/"
   xmlns:cc="http://creativecommons.org/ns#"
   xmlns:rdf="http://www.w3.org/1999/02/22-rdf-syntax-ns#"
   xmlns:svg="http://www.w3.org/2000/svg"
   xmlns="http://www.w3.org/2000/svg"
   xmlns:sodipodi="http://sodipodi.sourceforge.net/DTD/sodipodi-0.dtd"
   xmlns:inkscape="http://www.inkscape.org/namespaces/inkscape"
   version="1.1"
   x="0px"
   y="0px"
   width="576px"
   height="576px"
   viewBox="-0.031 -0.031 576 576"
   enable-background="new -0.031 -0.031 576 576"
   xml:space="preserve"
   id="svg2985"
   inkscape:version="0.48.4 r9939"
   sodipodi:docname="France_road_sign_B9a_re.svg"><metadata
   id="metadata2999"><rdf:RDF><cc:Work
       rdf:about=""><dc:format>image/svg+xml</dc:format><dc:type
         rdf:resource="http://purl.org/dc/dcmitype/StillImage" /><dc:title /></cc:Work></rdf:RDF></metadata><sodipodi:namedview
   pagecolor="#ffffff"
   bordercolor="#666666"
   borderopacity="1"
   objecttolerance="10"
   gridtolerance="10"
   guidetolerance="10"
   inkscape:pageopacity="0"
   inkscape:pageshadow="2"
   inkscape:window-width="1259"
   inkscape:window-height="745"
   id="namedview2997"
   showgrid="false"
   inkscape:zoom="0.20904195"
   inkscape:cx="1142.0452"
   inkscape:cy="548.03458"
   inkscape:window-x="99"
   inkscape:window-y="-8"
   inkscape:window-maximized="1"
   inkscape:current-layer="layer1" />
<defs
   id="defs2987">
</defs>




<g
   inkscape:groupmode="layer"
   id="layer2"
   inkscape:label="le svg"
   style="display:inline"><circle
     cx="287.96899"
     cy="287.96899"
     r="286.96899"
     id="circle2989"
     sodipodi:cx="287.96899"
     sodipodi:cy="287.96899"
     sodipodi:rx="286.96899"
     sodipodi:ry="286.96899"
     style="fill:#ffffff;stroke:#000000;stroke-width:2;stroke-linecap:round;stroke-linejoin:round" /><circle
     cx="287.96899"
     cy="287.96899"
     r="274.77499"
     id="circle2991"
     sodipodi:cx="287.96899"
     sodipodi:cy="287.96899"
     sodipodi:rx="274.77499"
     sodipodi:ry="274.77499"
     style="fill:#ff0000;stroke:#ff0000;stroke-width:0.17640001;stroke-linecap:round;stroke-linejoin:round" /><circle
     cx="287.96899"
     cy="287.96899"
     r="192.438"
     id="circle2993"
     sodipodi:cx="287.96899"
     sodipodi:cy="287.96899"
     sodipodi:rx="192.438"
     sodipodi:ry="192.438"
     style="fill:#ffffff;stroke:#ff0000;stroke-width:0.17640001;stroke-linecap:round;stroke-linejoin:round" /></g><g
   inkscape:groupmode="layer"
   id="layer1"
   inkscape:label="la photo"
   style="opacity:1;display:inline"><path
     style="font-size:medium;font-style:normal;font-variant:normal;font-weight:normal;font-stretch:normal;text-indent:0;text-align:start;text-decoration:none;line-height:normal;letter-spacing:normal;word-spacing:normal;text-transform:none;direction:ltr;block-progression:tb;writing-mode:lr-tb;text-anchor:start;baseline-shift:baseline;color:#000000;fill:#000000;fill-opacity:1;stroke:none;stroke-width:22.39999962;marker:none;visibility:visible;display:inline;overflow:visible;enable-background:accumulate;font-family:Sans;-inkscape-font-specification:Sans"
     d="m 277.219,125.87525 c -14.76927,0 -26.75,11.98073 -26.75,26.75 0,12.00004 7.92662,22.14539 18.8125,25.53125 l 1.8125,12.59375 -4.65625,2.03125 c -3.73099,0.54654 -7.10325,3.11239 -8.625,6.5625 l -21.90625,47.75 -43.46875,22.84375 c -2.59754,1.36217 -4.61833,3.78527 -5.49186,6.58521 -0.87354,2.79995 -0.58906,5.94225 0.77311,8.53979 1.36218,2.59754 3.78527,4.61833 6.58522,5.49186 2.79994,0.87354 5.94224,0.58906 8.53978,-0.77311 l 36.9375,-19.4375 c 6.10681,-3.92467 11.09333,-5.97321 13.02812,-8.06567 1.93478,-2.09245 3.12496,-5.40781 6.31563,-12.12183 l 3.89062,-8.46875 c 0,0 3.02606,-6.01418 4.25225,-5.9374 1.30824,0.0819 3.10713,20.53115 3.10713,20.53115 l 3.46875,23.0625 -0.15625,0.375 -58.09375,126.4375 c -1.5788,-0.85258 -3.39232,-1.34375 -5.3125,-1.34375 -6.17625,0 -11.1875,5.01125 -11.1875,11.1875 0,5.59648 6.67304,10.46845 9.5,11.03125 l 26.65625,12.25 6.625,-14.40625 51.14507,-111.41514 c 0.84237,-1.83503 6.14412,-1.90364 7.17638,0.16071 l 51.9598,103.91068 c -4.45478,1.47322 -7.6875,5.6763 -7.6875,10.625 0,6.17623 5.01125,11.1875 11.1875,11.1875 2.38667,0 4.50588,-0.50424 5.39371,-0.84996 l 1.32504,-0.58754 28.34375,-14.1875 -7.09375,-14.1875 -66.15625,-131.96875 -3.9375,-26.20312 -1.96875,-13.10156 c 0,0 -2.29998,-10.78489 -1.9257,-11.12127 0.37428,-0.33637 11.59757,9.66033 11.59757,9.66033 l 11.64063,11.64062 17.78125,56.5 c 0.87909,2.79844 2.90492,5.21771 5.50545,6.57467 2.60053,1.35696 5.74372,1.63489 8.54201,0.75531 2.79829,-0.87958 5.21721,-2.90583 6.57371,-5.50659 1.35651,-2.60077 1.6339,-5.744 0.75383,-8.54214 l -18.15625,-57.6875 c -0.3786,-1.27008 -1.04217,-2.50035 -1.72098,-3.65179 -0.67881,-1.15144 -1.3901,-2.23705 -2.34152,-3.19196 L 310.594,194.469 c -0.56729,-0.57609 -1.19718,-1.0905 -1.875,-1.53125 l -0.21875,-0.28125 -4.53125,-2.90625 -3.25,-1.625 -2.25,-0.3125 -6.625,-0.25 -1.65625,-11.53125 c 8.21601,-4.56346 13.78125,-13.34165 13.78125,-23.40625 0,-14.76927 -11.98072,-26.75 -26.75,-26.75 z"
     id="path3025"
     inkscape:connector-curvature="0"
     sodipodi:nodetypes="ssccccccssscczccsccccsscccsscssccccccczcccssscczcccccccccss" /></g></svg>