<?xml version="1.0" encoding="UTF-8" standalone="no"?>
<!-- Generator: Adobe Illustrator 13.0.0, SVG Export Plug-In  -->

<svg
   xmlns:dc="http://purl.org/dc/elements/1.1/"
   xmlns:cc="http://creativecommons.org/ns#"
   xmlns:rdf="http://www.w3.org/1999/02/22-rdf-syntax-ns#"
   xmlns:svg="http://www.w3.org/2000/svg"
   xmlns="http://www.w3.org/2000/svg"
   xmlns:sodipodi="http://sodipodi.sourceforge.net/DTD/sodipodi-0.dtd"
   xmlns:inkscape="http://www.inkscape.org/namespaces/inkscape"
   version="1.1"
   x="0px"
   y="0px"
   width="576px"
   height="576px"
   viewBox="-0.943 -0.943 576 576"
   enable-background="new -0.943 -0.943 576 576"
   xml:space="preserve"
   id="svg2"
   inkscape:version="0.91 r13725"
   sodipodi:docname="France_road_sign_B3.svg"><metadata
     id="metadata30"><rdf:RDF><cc:Work
         rdf:about=""><dc:format>image/svg+xml</dc:format><dc:type
           rdf:resource="http://purl.org/dc/dcmitype/StillImage" /></cc:Work></rdf:RDF></metadata><sodipodi:namedview
     pagecolor="#ffffff"
     bordercolor="#666666"
     borderopacity="1"
     objecttolerance="10"
     gridtolerance="10"
     guidetolerance="10"
     inkscape:pageopacity="0"
     inkscape:pageshadow="2"
     inkscape:window-width="1440"
     inkscape:window-height="788"
     id="namedview28"
     showgrid="false"
     inkscape:zoom="1.1517467"
     inkscape:cx="235.35439"
     inkscape:cy="287.78682"
     inkscape:window-x="0"
     inkscape:window-y="1"
     inkscape:window-maximized="1"
     inkscape:current-layer="svg2" /><defs
     id="defs4" /><circle
     fill="#FFFFFF"
     stroke="#000000"
     stroke-width="0.1764"
     stroke-linecap="round"
     stroke-linejoin="round"
     cx="287.057"
     cy="287.057"
     r="286.969"
     id="circle6" /><circle
     fill="#EA190E"
     stroke="#FF0000"
     stroke-width="0.1764"
     stroke-linecap="round"
     stroke-linejoin="round"
     cx="287.057"
     cy="287.057"
     r="274.775"
     id="circle8" /><circle
     cx="287.057"
     cy="287.057"
     r="192.438"
     id="circle10"
     stroke-linejoin="round"
     stroke-linecap="round"
     stroke-width="0.1764"
     stroke="#FF0000"
     fill="#FFFFFF" /><g
     id="g4211"
     transform="translate(-0.49285816,0)"><path
       sodipodi:nodetypes="cccsscssssccsssscssccccccccccccccc"
       style="opacity:1;fill:#000000;fill-opacity:1;fill-rule:evenodd;stroke:none;stroke-width:1;stroke-linecap:round;stroke-linejoin:round;stroke-miterlimit:4;stroke-dasharray:none;stroke-dashoffset:0;stroke-opacity:1"
       d="m 338.82432,223.70117 c -9.20087,-0.12263 -15.95024,4.068 -18.81146,15.3393 l -7.54314,29.94484 c -5.10406,0.038 -9.2019,4.15603 -9.2019,9.26937 l 0,28.23829 c 0,4.97176 3.87676,8.99248 8.783,9.24688 l 0,29.10982 c 0,2.13313 1.71575,3.84889 3.84888,3.84889 l 12.81181,0 c 2.13312,0 3.8517,-1.71576 3.8517,-3.84889 l 0,-29.08452 87.62469,0 0,29.08452 c 0,2.13313 1.71857,3.84889 3.8517,3.84889 l 12.8118,0 c 2.13313,0 3.84889,-1.71576 3.84889,-3.84889 l 0,-29.10982 c 4.90507,-0.2558 8.78299,-4.27607 8.78299,-9.24688 l 0,-28.23829 c 0,-5.11334 -4.10064,-9.23141 -9.2047,-9.26939 l -7.54314,-29.94482 c -2.86123,-11.2713 -9.60779,-15.46195 -18.80865,-15.3393 l -37.55264,0 z m 2.8958,10.32647 64.44985,0.0619 c 14.63485,-0.31676 15.17115,-0.007 18.80865,15.33931 l 2.9689,11.78844 c 0.82637,3.23335 0.40665,5.81104 -1.50413,7.76524 l -100.13848,0 c -1.9108,-1.9542 -2.33051,-4.53189 -1.50414,-7.76524 l 2.9689,-11.78844 c 3.18281,-13.42845 3.99359,-15.34445 13.95045,-15.40116 z"
       id="rect4200"
       inkscape:connector-curvature="0" /><path
       inkscape:connector-curvature="0"
       id="path4777"
       d="m 161.17295,223.70117 c -9.20087,-0.12263 -15.95024,4.068 -18.81146,15.3393 l -7.54314,29.94484 c -5.10406,0.038 -9.2019,4.15603 -9.2019,9.26937 l 0,28.23829 c 0,4.97176 3.87676,8.99248 8.783,9.24688 l 0,29.10982 c 0,2.13313 1.71575,3.84889 3.84888,3.84889 l 12.81181,0 c 2.13312,0 3.8517,-1.71576 3.8517,-3.84889 l 0,-29.08452 87.62469,0 0,29.08452 c 0,2.13313 1.71857,3.84889 3.8517,3.84889 l 12.8118,0 c 2.13313,0 3.84889,-1.71576 3.84889,-3.84889 l 0,-29.10982 c 4.90507,-0.2558 8.78299,-4.27607 8.78299,-9.24688 l 0,-28.23829 c 0,-5.11334 -4.10064,-9.23141 -9.2047,-9.26939 l -7.54314,-29.94482 c -2.86123,-11.2713 -9.60779,-15.46195 -18.80865,-15.3393 l -37.55264,0 z m 2.8958,10.32647 64.44985,0.0619 c 14.63485,-0.31676 15.17115,-0.007 18.80865,15.33931 l 2.9689,11.78844 c 0.82637,3.23335 0.40665,5.81104 -1.50413,7.76524 l -100.13848,0 c -1.9108,-1.9542 -2.33051,-4.53189 -1.50414,-7.76524 l 2.9689,-11.78844 c 3.18281,-13.42845 3.99359,-15.34445 13.95045,-15.40116 z"
       style="opacity:1;fill:#ea190e;fill-opacity:1;fill-rule:evenodd;stroke:none;stroke-width:1;stroke-linecap:round;stroke-linejoin:round;stroke-miterlimit:4;stroke-dasharray:none;stroke-dashoffset:0;stroke-opacity:1"
       sodipodi:nodetypes="cccsscssssccsssscssccccccccccccccc" /></g></svg>