<?xml version="1.0" encoding="UTF-8" standalone="no"?>
<!-- Generator: Adobe Illustrator 13.0.0, SVG Export Plug-In  -->

<svg
   xmlns:dc="http://purl.org/dc/elements/1.1/"
   xmlns:cc="http://creativecommons.org/ns#"
   xmlns:rdf="http://www.w3.org/1999/02/22-rdf-syntax-ns#"
   xmlns:svg="http://www.w3.org/2000/svg"
   xmlns="http://www.w3.org/2000/svg"
   xmlns:sodipodi="http://sodipodi.sourceforge.net/DTD/sodipodi-0.dtd"
   xmlns:inkscape="http://www.inkscape.org/namespaces/inkscape"
   version="1.1"
   x="0px"
   y="0px"
   width="576px"
   height="576px"
   viewBox="-0.031 -0.031 576 576"
   enable-background="new -0.031 -0.031 576 576"
   xml:space="preserve"
   id="svg2"
   inkscape:version="0.91 r13725"
   sodipodi:docname="France_road_sign_B3a.svg"><metadata
     id="metadata24"><rdf:RDF><cc:Work
         rdf:about=""><dc:format>image/svg+xml</dc:format><dc:type
           rdf:resource="http://purl.org/dc/dcmitype/StillImage" /></cc:Work></rdf:RDF></metadata><sodipodi:namedview
     pagecolor="#ffffff"
     bordercolor="#666666"
     borderopacity="1"
     objecttolerance="10"
     gridtolerance="10"
     guidetolerance="10"
     inkscape:pageopacity="0"
     inkscape:pageshadow="2"
     inkscape:window-width="1440"
     inkscape:window-height="788"
     id="namedview22"
     showgrid="false"
     inkscape:zoom="0.68694703"
     inkscape:cx="349.79092"
     inkscape:cy="171.54269"
     inkscape:window-x="0"
     inkscape:window-y="1"
     inkscape:window-maximized="1"
     inkscape:current-layer="svg2" /><defs
     id="defs4" /><circle
     fill="#FFFFFF"
     stroke="#000000"
     stroke-width="2"
     stroke-linecap="round"
     stroke-linejoin="round"
     cx="287.969"
     cy="287.969"
     r="286.969"
     id="circle6" /><circle
     fill="#EA190E"
     stroke="#FF0000"
     stroke-width="0.1764"
     stroke-linecap="round"
     stroke-linejoin="round"
     cx="287.969"
     cy="287.969"
     r="274.775"
     id="circle8" /><circle
     fill="#FFFFFF"
     stroke="#FF0000"
     stroke-width="0.1764"
     stroke-linecap="round"
     stroke-linejoin="round"
     cx="287.969"
     cy="287.969"
     r="192.438"
     id="circle10" /><path
     inkscape:connector-curvature="0"
     id="rect4200"
     d="m 332.90628,273.87713 c -8.46481,-0.11284 -14.67422,3.74256 -17.30654,14.11217 l -6.93969,27.54923 c -4.69574,0.0349 -8.46575,3.82356 -8.46575,8.52784 l 0,25.97922 c 0,4.57403 3.56662,8.27307 8.08035,8.50712 l 0,26.78104 c 0,1.96248 1.57851,3.54098 3.54097,3.54098 l 11.78688,0 c 1.96246,0 3.54354,-1.5785 3.54354,-3.54098 l 0,-26.75777 80.61472,0 0,26.75777 c 0,1.96248 1.58109,3.54098 3.54357,3.54098 l 11.78687,0 c 1.96246,0 3.54096,-1.5785 3.54096,-3.54098 l 0,-26.78104 c 4.51269,-0.23533 8.08034,-3.93397 8.08034,-8.50712 l 0,-25.97922 c 0,-4.70428 -3.77259,-8.4929 -8.46833,-8.52784 l -6.93969,-27.54923 c -2.63231,-10.36961 -8.83914,-14.22501 -17.30394,-14.11217 l -34.54843,0 z m 2.66413,9.50037 59.29386,0.057 c 13.46407,-0.29144 13.95747,-0.006 17.30397,14.11216 l 2.73137,10.84535 c 0.76027,2.9747 0.37413,5.34617 -1.38379,7.14403 l -92.12741,0 c -1.75792,-1.79786 -2.14406,-4.16933 -1.38379,-7.14403 l 2.73138,-10.84535 c 2.92819,-12.35417 3.6741,-14.11689 12.83441,-14.16907 z"
     style="opacity:1;fill:#000000;fill-opacity:1;fill-rule:evenodd;stroke:none;stroke-width:1;stroke-linecap:round;stroke-linejoin:round;stroke-miterlimit:4;stroke-dasharray:none;stroke-dashoffset:0;stroke-opacity:1"
     sodipodi:nodetypes="cccsscssssccsssscssccccccccccccccc" /><path
     inkscape:connector-curvature="0"
     id="rect4198"
     d="m 153.99897,188.97936 c -1.90777,0 -3.72675,0.3753 -5.37594,1.05391 -0.41177,0.16954 -0.81322,0.35911 -1.2032,0.56542 -0.39,0.20637 -0.77168,0.43077 -1.13762,0.67171 -0.36588,0.241 -0.71887,0.50013 -1.05843,0.77349 -0.5161,0.41556 -0.98976,0.87763 -1.43841,1.36151 -0.14217,0.15333 -0.2926,0.29943 -0.42746,0.45911 0,0 0,0.002 0,0.002 -0.12141,0.14378 -0.22849,0.29908 -0.34377,0.4478 -0.4172,0.53818 -0.806,1.09867 -1.13761,1.69624 -1.05826,1.90675 -1.65779,4.09348 -1.65779,6.42309 l 0,141.9072 c 0,1.8637 0.38333,3.63601 1.07881,5.24703 0,0 0,0.002 0,0.002 0.17367,0.4021 0.36766,0.79524 0.57898,1.17606 0.63494,1.14418 1.43618,2.18638 2.37021,3.09846 0.31135,0.30405 0.637,0.59466 0.97704,0.86847 1.02006,0.82139 2.16195,1.50127 3.39925,2.01061 0,0 0.002,0 0.002,0 0.20963,0.0863 0.42973,0.1544 0.64457,0.23069 -0.0631,0.3085 -0.0973,0.62615 -0.0973,0.95442 l 0,26.33691 c 0,2.55337 2.00699,4.60924 4.50068,4.60924 l 11.5412,0 c 2.49369,0 4.50068,-2.05587 4.50068,-4.60924 l 0,-26.33691 c 0,-0.0451 -0.0123,-0.0865 -0.0136,-0.13119 l 83.25131,0 c -0.001,0.0448 -0.0136,0.0861 -0.0136,0.13119 l 0,26.33691 c 0,2.55337 2.00928,4.60924 4.50294,4.60924 l 11.53894,0 c 2.4937,0 4.50069,-2.05587 4.50069,-4.60924 l 0,-26.33691 c 0,-0.32827 -0.0342,-0.64592 -0.0973,-0.95442 1.3235,-0.46991 2.54896,-1.12782 3.64578,-1.94729 0.002,-10e-4 0.004,-0.003 0.007,-0.004 0.24923,-0.18643 0.4907,-0.38118 0.72599,-0.58351 0.0613,-0.0526 0.12058,-0.10695 0.18093,-0.16057 0.65106,-0.58018 1.24405,-1.21894 1.77087,-1.9111 0.0735,-0.0962 0.14853,-0.19129 0.21939,-0.28949 0.12923,-0.17966 0.25061,-0.36355 0.37092,-0.54958 0.10075,-0.15533 0.19739,-0.31308 0.29174,-0.47268 0.0962,-0.16317 0.19123,-0.32561 0.28044,-0.49304 0.11871,-0.22196 0.22858,-0.44937 0.33472,-0.6785 0.0563,-0.12199 0.11923,-0.24021 0.17189,-0.36412 0.1489,-0.34906 0.27914,-0.7063 0.39806,-1.06976 0.0422,-0.12962 0.077,-0.26221 0.11532,-0.39353 0.0797,-0.27207 0.15253,-0.54652 0.21486,-0.8255 0.0274,-0.12309 0.0529,-0.24657 0.0769,-0.37091 0.0592,-0.30694 0.10711,-0.61766 0.14474,-0.93179 0.0123,-0.10263 0.0263,-0.20424 0.0361,-0.3076 0.0407,-0.42201 0.0679,-0.84725 0.0679,-1.28009 l 0,-141.9072 c 0,-2.79554 -0.86463,-5.3869 -2.34758,-7.53356 -0.4943,-0.71565 -1.05772,-1.38219 -1.6804,-1.99025 -1.24541,-1.2159 -2.72881,-2.19785 -4.37856,-2.87682 -1.64972,-0.67912 -3.46515,-1.05392 -5.37369,-1.05392 l -114.65883,0 z"
     style="opacity:1;fill:#ea190e;fill-opacity:1;fill-rule:evenodd;stroke:none;stroke-width:0.30000001;stroke-linecap:round;stroke-linejoin:round;stroke-miterlimit:4;stroke-dasharray:none;stroke-dashoffset:0;stroke-opacity:1" /></svg>