<?xml version="1.0" encoding="UTF-8" standalone="no"?>
<!-- Generator: Adobe Illustrator 13.0.0, SVG Export Plug-In  -->

<svg
   xmlns:dc="http://purl.org/dc/elements/1.1/"
   xmlns:cc="http://creativecommons.org/ns#"
   xmlns:rdf="http://www.w3.org/1999/02/22-rdf-syntax-ns#"
   xmlns:svg="http://www.w3.org/2000/svg"
   xmlns="http://www.w3.org/2000/svg"
   xmlns:sodipodi="http://sodipodi.sourceforge.net/DTD/sodipodi-0.dtd"
   xmlns:inkscape="http://www.inkscape.org/namespaces/inkscape"
   version="1.1"
   x="0px"
   y="0px"
   width="576px"
   height="576px"
   viewBox="-0.031 -0.031 576 576"
   enable-background="new -0.031 -0.031 576 576"
   xml:space="preserve"
   id="svg2"
   inkscape:version="0.91 r13725"
   sodipodi:docname="France_road_sign_B9b.svg"><metadata
     id="metadata44"><rdf:RDF><cc:Work
         rdf:about=""><dc:format>image/svg+xml</dc:format><dc:type
           rdf:resource="http://purl.org/dc/dcmitype/StillImage" /><dc:title></dc:title></cc:Work></rdf:RDF></metadata><sodipodi:namedview
     pagecolor="#ffffff"
     bordercolor="#666666"
     borderopacity="1"
     objecttolerance="10"
     gridtolerance="10"
     guidetolerance="10"
     inkscape:pageopacity="0"
     inkscape:pageshadow="2"
     inkscape:window-width="1440"
     inkscape:window-height="788"
     id="namedview42"
     showgrid="false"
     inkscape:zoom="0.9714898"
     inkscape:cx="111.46701"
     inkscape:cy="288"
     inkscape:window-x="0"
     inkscape:window-y="1"
     inkscape:window-maximized="1"
     inkscape:current-layer="svg2" /><defs
     id="defs4" /><circle
     fill="#FFFFFF"
     stroke="#000000"
     stroke-width="2"
     stroke-linecap="round"
     stroke-linejoin="round"
     cx="287.969"
     cy="287.969"
     r="286.969"
     id="circle6" /><circle
     fill="#FF0000"
     stroke="#FF0000"
     stroke-width="0.1764"
     stroke-linecap="round"
     stroke-linejoin="round"
     cx="287.969"
     cy="287.969"
     r="274.775"
     id="circle8" /><circle
     fill="#FFFFFF"
     stroke="#FF0000"
     stroke-width="0.1764"
     stroke-linecap="round"
     stroke-linejoin="round"
     cx="287.969"
     cy="287.969"
     r="192.438"
     id="circle10" /><path
     id="circle4300"
     d="m 226.41383,188.57443 c -15.32109,-0.51839 -19.82479,19.70081 -8.18544,23.68286 l 11.26166,4.19865 -14.44884,42.3016 a 55.783627,55.775482 0 0 0 -22.52775,-4.82445 55.783627,55.775482 0 0 0 -55.78447,55.77633 55.783627,55.775482 0 0 0 55.78447,55.77637 55.783627,55.775482 0 0 0 55.78449,-55.77637 55.783627,55.775482 0 0 0 -24.72948,-46.28276 l 4.33243,-12.53825 53.01457,58.84322 a 18.182005,18.17935 0 0 0 -1.74452,7.71823 18.182005,18.17935 0 0 0 18.15093,18.17935 l 2.15292,12.48944 -4.874,0.83884 1.35833,7.91351 17.38299,-2.99143 -1.36277,-7.91351 -4.29247,0.73674 -2.23281,-12.98649 a 18.182005,18.17935 0 0 0 9.65921,-12.43176 l 13.56991,-0.94091 a 55.783627,55.775482 0 0 0 54.74133,45.14215 55.783627,55.775482 0 0 0 55.78447,-55.77637 55.783627,55.775482 0 0 0 -55.78447,-55.77633 55.783627,55.775482 0 0 0 -25.23112,6.09383 l -21.2715,-30.85519 4.90505,-14.48224 c 6.77744,-1.64255 12.85006,-3.18235 15.42987,-6.34679 3.63323,-4.45665 -1.171,-10.68875 -8.65155,-10.50994 l -29.59903,0 c -6.51086,-0.0907 -8.99471,6.70195 -4.95388,9.04529 l 17.76918,7.25665 -3.37364,9.96847 -91.29175,0 2.3571,-6.81726 -0.0139,-0.005 1.9842,-6.52876 c -6.65495,-3.00364 -20.78465,-4.66552 -18.90999,-9.96403 0.55912,-5.8627 21.33585,-2.39561 28.38718,-3.81695 l 0,-8.3973 -24.54747,0 z m 7.47079,45.0001 91.66911,0 -22.5455,66.61029 a 18.182005,18.17935 0 0 0 -3.46241,-0.76785 l -2.05968,-11.98344 4.22588,-0.72788 -1.36276,-7.91352 -17.37855,2.9914 1.36278,7.9091 4.9361,-0.84773 1.97981,11.49527 a 18.182005,18.17935 0 0 0 -2.44587,1.08292 l -56.63678,-62.87319 1.71787,-4.97537 z m 99.48168,9.04972 15.90037,23.0704 a 55.783627,55.775482 0 0 0 -21.62663,44.01477 55.783627,55.775482 0 0 0 0.004,0.12426 l -13.39247,0.92761 a 18.182005,18.17935 0 0 0 -2.47696,-4.3584 l 21.5914,-63.77866 z m -140.85284,19.91919 a 47.17016,47.163274 0 0 1 19.73566,4.38506 l -9.92555,29.06209 c -0.59557,2.13506 -2.7213,3.49229 -4.74081,4.88215 a 10.227377,10.225885 0 0 0 -5.51764,-1.62885 10.227377,10.225885 0 0 0 -10.22737,10.22588 10.227377,10.225885 0 0 0 10.22737,10.22589 10.227377,10.225885 0 0 0 10.22739,-10.22589 10.227377,10.225885 0 0 0 -0.0933,-1.25161 c 3.86617,-2.45365 7.44919,-5.37608 8.3275,-7.05693 l 10.10751,-29.25294 a 47.17016,47.163274 0 0 1 19.05206,37.80113 47.17016,47.163274 0 0 1 -47.17291,47.16158 47.17016,47.163274 0 0 1 -47.16846,-47.16158 47.17016,47.163274 0 0 1 47.16846,-47.16598 z m 190.91106,0 a 47.17016,47.163274 0 0 1 47.1729,47.16598 47.17016,47.163274 0 0 1 -47.1729,47.16158 47.17016,47.163274 0 0 1 -46.02766,-37.13095 l 38.99188,-2.70296 a 10.227377,10.225885 0 0 0 7.3243,3.08908 10.227377,10.225885 0 0 0 10.22738,-10.22589 10.227377,10.225885 0 0 0 -8.28755,-10.03503 l -22.52776,-32.68378 a 47.17016,47.163274 0 0 1 20.29941,-4.63803 z m -29.29719,10.19925 21.40027,31.04604 a 10.227377,10.225885 0 0 0 -1.4915,2.82721 l -37.75782,2.61859 a 47.17016,47.163274 0 0 1 17.84905,-36.49184 z"
     style="fill:#000000;stroke:none;stroke-width:2.16587019"
     inkscape:connector-curvature="0" /></svg>