<?xml version="1.0" encoding="UTF-8" standalone="no"?>
<!-- Generator: Adobe Illustrator 13.0.0, SVG Export Plug-In  -->

<svg
   xmlns:dc="http://purl.org/dc/elements/1.1/"
   xmlns:cc="http://creativecommons.org/ns#"
   xmlns:rdf="http://www.w3.org/1999/02/22-rdf-syntax-ns#"
   xmlns:svg="http://www.w3.org/2000/svg"
   xmlns="http://www.w3.org/2000/svg"
   xmlns:sodipodi="http://sodipodi.sourceforge.net/DTD/sodipodi-0.dtd"
   xmlns:inkscape="http://www.inkscape.org/namespaces/inkscape"
   version="1.1"
   x="0px"
   y="0px"
   width="576px"
   height="576px"
   viewBox="-0.531 -0.531 576 576"
   enable-background="new -0.531 -0.531 576 576"
   xml:space="preserve"
   id="svg2985"
   inkscape:version="0.48.4 r9939"
   sodipodi:docname="France_road_sign_C1a re2.svg"><metadata
   id="metadata3001"><rdf:RDF><cc:Work
       rdf:about=""><dc:format>image/svg+xml</dc:format><dc:type
         rdf:resource="http://purl.org/dc/dcmitype/StillImage" /><dc:title></dc:title></cc:Work></rdf:RDF></metadata><sodipodi:namedview
   pagecolor="#ffffff"
   bordercolor="#666666"
   borderopacity="1"
   objecttolerance="10"
   gridtolerance="10"
   guidetolerance="10"
   inkscape:pageopacity="0"
   inkscape:pageshadow="2"
   inkscape:window-width="1284"
   inkscape:window-height="746"
   id="namedview2999"
   showgrid="false"
   inkscape:snap-bbox="true"
   inkscape:bbox-paths="true"
   inkscape:bbox-nodes="true"
   inkscape:snap-bbox-edge-midpoints="true"
   inkscape:snap-bbox-midpoints="true"
   inkscape:object-paths="true"
   inkscape:snap-intersection-paths="true"
   inkscape:object-nodes="true"
   inkscape:snap-smooth-nodes="true"
   inkscape:snap-midpoints="true"
   inkscape:snap-object-midpoints="true"
   inkscape:snap-center="true"
   inkscape:snap-grids="false"
   inkscape:zoom="0.83958246"
   inkscape:cx="312.14014"
   inkscape:cy="165.95184"
   inkscape:window-x="74"
   inkscape:window-y="-8"
   inkscape:window-maximized="1"
   inkscape:current-layer="layer2"><inkscape:grid
     type="xygrid"
     id="grid3003" /></sodipodi:namedview>
<defs
   id="defs2987">
</defs>





<g
   inkscape:groupmode="layer"
   id="layer1"
   inkscape:label="Calque" /><g
   inkscape:groupmode="layer"
   id="layer2"
   inkscape:label="Calque#1"
   style="opacity:1"><path
     d="M41.496,574.438h491.947  c10.872,0,21.3-4.318,28.988-12.007c7.688-7.688,12.007-18.115,12.007-28.988V41.496c0-10.873-4.319-21.3-12.007-28.988  C554.742,4.819,544.314,0.5,533.442,0.5H41.496c-10.873,0-21.3,4.319-28.988,12.007C4.819,20.195,0.5,30.623,0.5,41.496v491.947  c0,10.873,4.319,21.3,12.007,28.988C20.195,570.119,30.623,574.438,41.496,574.438z"
     id="path2989"
     style="fill:#ffffff;stroke:#000000;stroke-opacity:1" /><path
     d="M544.919,529.72c0,6.744-5.468,12.214-12.214,12.214H42.659  c-6.746,0-12.214-5.47-12.214-12.214V41.173c0-6.746,5.468-12.214,12.214-12.214h490.046c6.746,0,12.214,5.469,12.214,12.214V529.72  z"
     id="path2991"
     style="fill:#0000ff;stroke:#000000;stroke-opacity:1" /><path
     style="color:#000000;fill:#ffffff;fill-opacity:1;fill-rule:nonzero;stroke:none;stroke-width:1;marker:none;visibility:visible;display:inline;overflow:visible;enable-background:accumulate"
     d="M 170.53125 124.28125 L 170.53125 241.96875 L 170.53125 450.5 L 239.5 450.5 L 239.5 359.6875 L 288.21875 359.6875 C 353.2199 359.6875 405.90625 306.9699 405.90625 241.96875 C 405.90625 176.9676 353.2199 124.28125 288.21875 124.28125 L 239.5 124.28125 L 170.53125 124.28125 z "
     transform="translate(-0.531,-0.531)"
     id="path3011" /><path
     style="color:#000000;fill:#0000ff;fill-opacity:1;fill-rule:nonzero;stroke:none;stroke-width:1;marker:none;visibility:visible;display:inline;overflow:visible;enable-background:accumulate"
     d="M 239.5 193.28125 L 239.5 241.96875 L 239.5 290.6875 L 288.21875 290.6875 C 315.12165 290.6875 336.9375 268.87165 336.9375 241.96875 C 336.9375 215.06585 315.12165 193.28125 288.21875 193.28125 L 239.5 193.28125 z "
     transform="translate(-0.531,-0.531)"
     id="rect3015" /><rect
     style="color:#000000;fill:#0000ff;fill-opacity:1;fill-rule:nonzero;stroke:none;stroke-width:1;marker:none;visibility:visible;display:inline;overflow:visible;enable-background:accumulate"
     id="rect3815"
     width="63.83757"
     height="365.53326"
     x="106.14963"
     y="103.50685" /></g></svg>