<?xml version="1.0" encoding="UTF-8" standalone="no"?>
<!-- Generator: Adobe Illustrator 13.0.0, SVG Export Plug-In  -->

<svg
   version="1.1"
   x="0px"
   y="0px"
   width="576.53827"
   height="507.94376"
   viewBox="-0.781 -0.08 576.53826 507.94375"
   enable-background="new -0.781 -0.08 576 506"
   xml:space="preserve"
   id="svg2"
   inkscape:version="1.1.1 (3bf5ae0d25, 2021-09-20)"
   sodipodi:docname="France_road_sign_A13b.svg"
   xmlns:inkscape="http://www.inkscape.org/namespaces/inkscape"
   xmlns:sodipodi="http://sodipodi.sourceforge.net/DTD/sodipodi-0.dtd"
   xmlns="http://www.w3.org/2000/svg"
   xmlns:svg="http://www.w3.org/2000/svg"
   xmlns:rdf="http://www.w3.org/1999/02/22-rdf-syntax-ns#"
   xmlns:cc="http://creativecommons.org/ns#"
   xmlns:dc="http://purl.org/dc/elements/1.1/"><metadata
   id="metadata18"><rdf:RDF><cc:Work
       rdf:about=""><dc:format>image/svg+xml</dc:format><dc:type
         rdf:resource="http://purl.org/dc/dcmitype/StillImage" /></cc:Work></rdf:RDF></metadata><sodipodi:namedview
   pagecolor="#ffffff"
   bordercolor="#666666"
   borderopacity="1"
   objecttolerance="10"
   gridtolerance="10"
   guidetolerance="10"
   inkscape:pageopacity="0"
   inkscape:pageshadow="2"
   inkscape:window-width="1920"
   inkscape:window-height="991"
   id="namedview16"
   showgrid="false"
   fit-margin-top="0.3"
   fit-margin-left="0.3"
   fit-margin-right="0.3"
   fit-margin-bottom="0.3"
   inkscape:zoom="0.91315019"
   inkscape:cx="400.26274"
   inkscape:cy="327.98548"
   inkscape:window-x="-9"
   inkscape:window-y="-9"
   inkscape:window-maximized="1"
   inkscape:current-layer="svg2"
   showguides="true"
   inkscape:guide-bbox="true"
   inkscape:pagecheckerboard="0" />
<defs
   id="defs4">
</defs>





<path
   inkscape:connector-curvature="0"
   d="M 4.6642489,460.12075 260.66925,16.70776 c 5.532,-9.58 15.754,-15.482 26.816,-15.482 11.063,0 21.284,5.902 26.815,15.482 l 256.00499,443.41299 c 5.531,9.58 5.531,21.384 0,30.964 -5.53,9.58 -15.753,15.482 -26.815,15.482 H 31.479249 c -11.062,0 -21.284,-5.902 -26.8150001,-15.482 -5.53099996,-9.58 -5.53099996,-21.384 0,-30.964 z"
   id="path6"
   style="fill:#ffffff;stroke:#000000;stroke-width:2;stroke-linecap:round;stroke-linejoin:round;stroke-miterlimit:4;stroke-opacity:1;stroke-dasharray:none" /><path
   inkscape:connector-curvature="0"
   d="M 31.390249,494.18175 H 543.58124 c 6.618,0 12.734,-3.531 16.044,-9.264 3.31,-5.731 3.31,-12.794 0,-18.525 L 303.52925,22.82176 c -3.31,-5.732 -9.425,-9.263 -16.044,-9.263 -6.619,0 -12.734,3.531 -16.043,9.263 L 15.346249,466.39275 c -3.31,5.731 -3.31,12.794 0,18.525 3.309,5.732 9.425,9.264 16.044,9.264 z"
   id="path8"
   style="fill:#f91a0e;stroke:none" /><polygon
   transform="translate(0.01624894,0.72576)"
   points="511.296,456.299 63.642,456.299 287.469,68.62 "
   id="polygon10"
   style="fill:#ffffff;stroke:none" /><circle
   style="opacity:1;fill:#000000;stroke-width:38.2573;stroke-linecap:round;stroke-linejoin:round;stroke-dashoffset:6.67087;paint-order:stroke fill markers"
   id="path62-9"
   cx="279.97183"
   cy="170.46362"
   r="20.24748" /><path
   style="color:#000000;opacity:1;fill:#000000;stroke-width:8.08353;stroke-linecap:round;stroke-linejoin:round;-inkscape-stroke:none"
   d="m 299.04038,190.92829 c -2.03094,0 -4.99351,1.32267 -6.61995,2.2565 l -12.54075,7.20028 c -1.30511,0.74932 -2.54668,1.71003 -3.46421,2.83422 l -30.80673,37.74562 -28.51837,20.55505 c -3.7496,2.70141 -4.59911,7.93113 -1.89734,11.68046 2.70225,3.74871 7.74587,4.31824 11.68045,1.89459 16.38633,-10.09378 31.50613,-22.839 43.74548,-35.79677 l 3.80731,37.16506 -32.22444,47.8547 c -0.37411,0.55625 -0.69937,1.1438 -0.97222,1.7561 l -25.20563,56.46893 c -2.61779,5.86505 0.0158,12.74148 5.88038,15.35881 5.86426,2.61785 12.74048,-0.0142 15.35883,-5.87763 l 26.3468,-57.2971 27.74005,-34.30183 18.75742,37.07721 c 0,0 26.11325,38.18932 39.6421,56.80962 3.77486,5.19547 11.04654,6.34748 16.2424,2.5732 5.19543,-3.77481 6.3475,-11.04652 2.5732,-16.2424 l -37.89709,-52.15905 -17.00411,-47.49739 1.44031,-49.43905 21.70732,17.48607 6.64487,32.82825 c 0.91653,4.5289 5.41109,7.39936 9.92991,6.43437 4.52004,-0.96545 7.40111,-5.41291 6.43436,-9.93268 l -7.28193,-34.07747 c -0.32804,-1.5375 -1.08255,-2.95149 -2.1771,-4.07998 l -45.13927,-46.49506 c -1.38332,-1.38332 -3.69936,-2.78263 -6.18205,-2.78263 z"
   id="path10175" /><path
   style="opacity:1;fill:#000000;stroke:none;stroke-width:1.41816px;stroke-linecap:butt;stroke-linejoin:miter;stroke-opacity:1"
   d="M 406.19922,357.51953 439.13281,439.25 h 42.15821 l -41.70118,-81.73047 z"
   transform="translate(-0.781,-0.08)"
   id="path10310" /><path
   style="opacity:1;fill:#000000;stroke:none;stroke-width:1.41816px;stroke-linecap:butt;stroke-linejoin:miter;stroke-opacity:1"
   d="m 357.48438,357.51953 15.13281,20.82813 c 5.05797,6.96304 3.4937,16.82804 -3.46875,21.88672 v 0.002 c -6.96301,5.05794 -16.82802,3.49372 -21.88672,-3.46875 -0.97384,-1.34033 -2.33073,-3.2869 -3.41797,-4.80469 l 9.38086,47.28711 h 41.89844 l -23.80274,-81.73047 z"
   transform="translate(-0.781,-0.08)"
   id="path10308" /><path
   style="opacity:1;fill:#000000;stroke:none;stroke-width:1.41816px;stroke-linecap:butt;stroke-linejoin:miter;stroke-opacity:1"
   d="M 271.77539,357.51953 266.125,439.25 h 44.2832 l -5.65039,-81.73047 z"
   transform="translate(-0.781,-0.08)"
   id="path10306" /><path
   style="opacity:1;fill:#000000;stroke:none;stroke-width:1.41816px;stroke-linecap:butt;stroke-linejoin:miter;stroke-opacity:1"
   d="M 205.21289,357.51953 181.4082,439.25 h 41.90039 l 7.25586,-36.57227 c -3.10797,0.64565 -6.42979,0.37691 -9.52734,-1.00585 -7.85818,-3.5081 -11.42988,-12.83577 -7.92188,-20.69532 l 10.46875,-23.45703 z"
   transform="translate(-0.781,-0.08)"
   id="path10304" /><path
   style="opacity:1;fill:#000000;stroke:none;stroke-width:1.41816px;stroke-linecap:butt;stroke-linejoin:miter;stroke-opacity:1"
   d="M 136.94141,357.51953 95.242188,439.25 h 42.156252 l 32.93359,-81.73047 z"
   transform="translate(-0.781,-0.08)"
   id="path8283-7" /></svg>
