<?xml version="1.0" encoding="UTF-8" standalone="no"?>
<!-- Generator: Adobe Illustrator 13.0.0, SVG Export Plug-In  -->

<svg
   version="1.1"
   x="0px"
   y="0px"
   width="576.53827"
   height="507.94376"
   viewBox="-0.781 -0.08 576.53826 507.94375"
   enable-background="new -0.781 -0.08 576 506"
   xml:space="preserve"
   id="svg2"
   inkscape:version="1.1.2 (b8e25be833, 2022-02-05)"
   sodipodi:docname="France_road_sign_A13b.svg"
   xmlns:inkscape="http://www.inkscape.org/namespaces/inkscape"
   xmlns:sodipodi="http://sodipodi.sourceforge.net/DTD/sodipodi-0.dtd"
   xmlns="http://www.w3.org/2000/svg"
   xmlns:svg="http://www.w3.org/2000/svg"
   xmlns:rdf="http://www.w3.org/1999/02/22-rdf-syntax-ns#"
   xmlns:cc="http://creativecommons.org/ns#"
   xmlns:dc="http://purl.org/dc/elements/1.1/"><metadata
   id="metadata18"><rdf:RDF><cc:Work
       rdf:about=""><dc:format>image/svg+xml</dc:format><dc:type
         rdf:resource="http://purl.org/dc/dcmitype/StillImage" /></cc:Work></rdf:RDF></metadata><sodipodi:namedview
   pagecolor="#ffffff"
   bordercolor="#666666"
   borderopacity="1"
   objecttolerance="10"
   gridtolerance="10"
   guidetolerance="10"
   inkscape:pageopacity="0"
   inkscape:pageshadow="2"
   inkscape:window-width="1920"
   inkscape:window-height="1001"
   id="namedview16"
   showgrid="false"
   fit-margin-top="0.3"
   fit-margin-left="0.3"
   fit-margin-right="0.3"
   fit-margin-bottom="0.3"
   inkscape:zoom="1.5336344"
   inkscape:cx="288.53031"
   inkscape:cy="253.97188"
   inkscape:window-x="-9"
   inkscape:window-y="-9"
   inkscape:window-maximized="1"
   inkscape:current-layer="svg2"
   showguides="true"
   inkscape:guide-bbox="true"
   inkscape:pagecheckerboard="0"
   inkscape:object-paths="false"
   inkscape:snap-intersection-paths="false"
   inkscape:snap-smooth-nodes="false"
   inkscape:snap-bbox="false"
   inkscape:snap-bbox-edge-midpoints="false"
   inkscape:bbox-nodes="false"
   inkscape:snap-bbox-midpoints="false" />
<defs
   id="defs4">
</defs>





<path
   inkscape:connector-curvature="0"
   d="M 4.6642489,460.12075 260.66925,16.70776 c 5.532,-9.58 15.754,-15.482 26.816,-15.482 11.063,0 21.284,5.902 26.815,15.482 l 256.00499,443.41299 c 5.531,9.58 5.531,21.384 0,30.964 -5.53,9.58 -15.753,15.482 -26.815,15.482 H 31.479249 c -11.062,0 -21.284,-5.902 -26.8150001,-15.482 -5.53099996,-9.58 -5.53099996,-21.384 0,-30.964 z"
   id="path6"
   style="fill:#ffffff;stroke:#000000;stroke-width:2;stroke-linecap:round;stroke-linejoin:round;stroke-miterlimit:4;stroke-opacity:1;stroke-dasharray:none" /><path
   inkscape:connector-curvature="0"
   d="M 31.390249,494.18175 H 543.58124 c 6.618,0 12.734,-3.531 16.044,-9.264 3.31,-5.731 3.31,-12.794 0,-18.525 L 303.52925,22.82176 c -3.31,-5.732 -9.425,-9.263 -16.044,-9.263 -6.619,0 -12.734,3.531 -16.043,9.263 L 15.346249,466.39275 c -3.31,5.731 -3.31,12.794 0,18.525 3.309,5.732 9.425,9.264 16.044,9.264 z"
   id="path8"
   style="fill:#f91a0e;stroke:none" /><polygon
   transform="translate(0.01624894,0.72576)"
   points="511.296,456.299 63.642,456.299 287.469,68.62 "
   id="polygon10"
   style="fill:#ffffff;stroke:none" /><path
   d="M 223.24172,424.90201 201.74039,421.443 c -9.68307,-2.76512 -8.65819,-15.59753 3.5444,-15.90716 l 6.53367,-38.27321 17.25231,-35.67896 -0.16013,-42.44748 -18.10638,22.68633 -32.6043,11.88231 c -9.69375,2.99996 -13.15275,-10.15281 -4.72944,-13.62246 l 27.7254,-9.91797 20.47643,-25.91048 c 5.18851,-6.69381 11.41257,-10.70793 18.57612,-11.57268 v -6.69381 c -22.20593,-10.39839 -15.82172,-42.52226 8.90373,-42.6077 24.72546,-0.0721 29.92463,34.49394 8.26317,42.44756 v 7.24893 c 5.27391,0.79028 10.47309,3.22416 15.4374,6.92865 l 25.44074,18.58685 c 2.19924,1.7295 5.66892,4.17426 5.97852,7.63326 v 24.72546 l 18.03165,6.6191 27.96026,-20.78603 6.22407,-2.13522 -0.16014,-5.02836 c -14.80752,-7.32372 -10.00335,-30.55451 7.55856,-30.55451 17.5619,0 23.15609,24.17033 4.87889,31.81424 v 4.16362 c 2.83981,-0.0721 7.96425,1.18502 9.21334,2.04977 l 25.04573,19.05654 6.13865,29.14529 c 1.97505,7.47321 -9.12792,9.52299 -11.10296,2.12457 l -5.58352,-23.786 -16.93202,-13.22748 18.50139,53.31562 -4.48389,1.7295 5.11377,6.76852 32.44415,15.99251 -5.97852,11.96775 c -3.1494,5.43408 -12.68301,2.82909 -10.71863,-5.75435 l -27.15957,-13.30219 -11.65811,-11.73282 h -15.11712 l -11.26311,14.09223 -3.54441,36.30879 -15.35199,-0.79029 c -7.32368,-0.47001 -6.69381,-10.71858 1.87897,-10.71858 l 2.99994,-30.704 7.64396,-11.02821 -5.28459,-2.12457 17.64731,-53.23019 -25.20587,19.44087 -24.49058,-8.49801 c -1.4199,4.96431 -12.36273,4.17426 -12.36273,-3.23481 v -28.9745 l -19.68642,-12.36273 v 44.17706 l 15.27726,34.96362 31.73954,27.33043 -13.70789,16.21671 c -8.42331,7.7187 -19.45154,-1.7295 -12.05312,-10.70793 l -23.70057,-20.47649 -13.15275,-31.34448 c -2.12451,-4.32375 -6.13866,-4.64403 -8.34857,-0.14973 l -14.72211,30.0741"
   style="fill:#000000;fill-opacity:1;fill-rule:evenodd;stroke:none;stroke-width:10.6759"
   id="path1348"
   inkscape:label="path12" /></svg>
