<svg xmlns="http://www.w3.org/2000/svg" viewBox="0 0 100 100" width="100" height="100">
  <!-- Phone circle -->
  <circle cx="50" cy="50" r="45" fill="#00AA00" stroke="#008800" stroke-width="2"/>
  
  <!-- Phone icon -->
  <path d="M30,35 Q28,30 33,28 L43,25 Q48,24 50,29 L52,37 Q53,41 49,43 L45,45 Q43,46 44,48 L52,60 Q53,62 56,61 L60,58 Q64,56 66,60 L72,68 Q74,73 70,76 L62,80 Q50,85 35,65 Q20,45 30,35" fill="white"/>
  
  <!-- Sound waves -->
  <path d="M70,30 Q80,40 70,50" fill="none" stroke="white" stroke-width="2"/>
  <path d="M75,25 Q90,40 75,55" fill="none" stroke="white" stroke-width="2"/>
</svg>
