<svg xmlns="http://www.w3.org/2000/svg" viewBox="0 0 64 64" width="64" height="64">
  <!-- Burn treatment - water on flame/burn -->
  <!-- Flame shape (representing burn) -->
  <path d="M32,58 Q20,50 22,38 Q24,30 28,34 Q26,26 32,18 Q38,26 36,34 Q40,30 42,38 Q44,50 32,58 Z"
        fill="#FF6B35" stroke="#DC143C" stroke-width="1"/>
  <path d="M32,54 Q26,48 28,42 Q30,38 32,40 Q34,38 36,42 Q38,48 32,54 Z"
        fill="#FFD700"/>
  <!-- Water drops -->
  <ellipse cx="16" cy="20" rx="4" ry="6" fill="#3B82F6"/>
  <ellipse cx="26" cy="10" rx="4" ry="6" fill="#3B82F6"/>
  <ellipse cx="38" cy="8" rx="4" ry="6" fill="#3B82F6"/>
  <ellipse cx="48" cy="16" rx="4" ry="6" fill="#3B82F6"/>
  <!-- Water stream lines -->
  <path d="M16,26 Q18,32 20,38" stroke="#3B82F6" stroke-width="2" stroke-linecap="round" fill="none"/>
  <path d="M26,16 Q28,24 30,32" stroke="#3B82F6" stroke-width="2" stroke-linecap="round" fill="none"/>
  <path d="M38,14 Q36,22 34,30" stroke="#3B82F6" stroke-width="2" stroke-linecap="round" fill="none"/>
  <path d="M48,22 Q46,30 44,38" stroke="#3B82F6" stroke-width="2" stroke-linecap="round" fill="none"/>
</svg>
